# xmcd
#
# Track frame offsets:
#	150
#	13826
#	27944
#	42356
#	56393
#	74402
#	89830
#	104714
#	118179
#	141281
#	157301
#	174804
#
# Disc length: 2535 seconds
# Revision: 0
# Processed by: cddbd v1.5.2PL0 Copyright (c) Steve Scherf et al.
# Submitted via: dBpowerAMP V12.0
#
DISCID=b009e50c
DTITLE=Jan Seides - Siren Song
DYEAR=2013
DGENRE=Country
TTITLE0=High Hopes for YOu
TTITLE1=Dishonesty
TTITLE2=Gotta Dance
TTITLE3=Circle of Friends
TTITLE4=Behind Closed Doors
TTITLE5=Femme Fatale
TTITLE6=Thinking of You
TTITLE7=Flying to New York City
TTITLE8=Rachel's Sister
TTITLE9=Forgive Your Debtors
TTITLE10=Every Now and Then
TTITLE11=I Missed Texas
EXTD=
EXTT0=
EXTT1=
EXTT2=
EXTT3=
EXTT4=
EXTT5=
EXTT6=
EXTT7=
EXTT8=
EXTT9=
EXTT10=
EXTT11=
PLAYORDER=
